<!--?xml version="1.0" standalone="no"?-->
              <svg id="sw-js-blob-svg" viewBox="0 0 100 100" xmlns="http://www.w3.org/2000/svg" version="1.1">
                    <defs> 
                        <linearGradient id="sw-gradient" x1="0" x2="1" y1="1" y2="0">
                            <stop id="stop1" stop-color="rgba(0, 136, 169, 1)" offset="0%"></stop>
                            <stop id="stop2" stop-color="rgba(0, 159.768, 198.536, 1)" offset="100%"></stop>
                        </linearGradient>
                    </defs>
                <path fill="url(#sw-gradient)" d="M18.5,-26.3C25.3,-24.5,33,-21.5,37,-16C40.9,-10.4,41,-2.3,40.3,6.1C39.6,14.5,38,23,33.3,29.4C28.6,35.7,20.8,39.9,13.1,40.3C5.4,40.6,-2.2,37.1,-10.4,34.9C-18.6,32.8,-27.4,32.1,-31.5,27.3C-35.5,22.6,-34.8,13.7,-33,6.5C-31.3,-0.6,-28.5,-6.2,-26.8,-13.3C-25.2,-20.3,-24.6,-28.9,-20.4,-31.9C-16.1,-34.8,-8,-32.2,-1.1,-30.5C5.9,-28.8,11.8,-28.1,18.5,-26.3Z" width="100%" height="100%" transform="translate(50 50)" stroke-width="0" style="transition: all 0.3s ease 0s;" stroke="url(#sw-gradient)"></path>
              </svg>