<svg xmlns="http://www.w3.org/2000/svg" width="75" viewBox="0 0 75 75" height="75" version="1.0"><defs><clipPath id="a"><path d="M 2.851562 11.425781 L 71.851562 11.425781 L 71.851562 63.925781 L 2.851562 63.925781 Z M 2.851562 11.425781"/></clipPath><clipPath id="b"><path d="M 56.503906 17.488281 L 56.554688 25.105469 L 59.570312 22.777344 L 59.570312 11.457031 L 37.332031 27.460938 L 15.238281 11.457031 L 15.238281 60.796875 L 5.914062 60.796875 L 5.914062 23.925781 L 12.378906 28.664062 L 12.433594 24.878906 L 2.851562 17.804688 L 2.851562 63.898438 L 18.308594 63.898438 L 18.308594 17.5 L 37.328125 31.289062 Z M 37.339844 42.71875 L 21.34375 30.933594 L 21.34375 34.625 L 37.300781 46.539062 L 68.765625 23.875 L 68.765625 60.796875 L 59.570312 60.796875 L 59.570312 34.492188 L 56.507812 36.792969 L 56.507812 63.898438 L 71.855469 63.898438 L 71.855469 17.855469 Z M 37.339844 42.71875"/></clipPath></defs><path fill="#FFF" d="M-7.5 -7.5H82.5V82.5H-7.5z"/><path fill="#FFF" d="M-7.5 -7.5H82.5V82.5H-7.5z"/><path d="M-7.5 -7.5H82.5V82.5H-7.5z"/><g clip-path="url(#a)"><g clip-path="url(#b)"><path fill="#4267B2" d="M 2.851562 11.457031 L 2.851562 63.898438 L 71.851562 63.898438 L 71.851562 11.457031 Z M 2.851562 11.457031"/></g></g></svg>