<svg xmlns="http://www.w3.org/2000/svg" width="375" viewBox="0 0 375 375" height="375" version="1.0"><defs><clipPath id="a"><path d="M 136.699219 143.128906 L 237.949219 143.128906 L 237.949219 219.628906 L 136.699219 219.628906 Z M 136.699219 143.128906"/></clipPath><clipPath id="b"><path d="M 215.433594 151.957031 L 215.507812 163.0625 L 219.929688 159.667969 L 219.929688 143.171875 L 187.300781 166.492188 L 154.878906 143.171875 L 154.878906 215.0625 L 141.195312 215.0625 L 141.195312 161.339844 L 150.683594 168.246094 L 150.761719 162.730469 L 136.699219 152.417969 L 136.699219 219.582031 L 159.382812 219.582031 L 159.382812 151.980469 L 187.289062 172.066406 Z M 187.308594 188.722656 L 163.835938 171.550781 L 163.835938 176.929688 L 187.253906 194.292969 L 233.425781 161.265625 L 233.425781 215.0625 L 219.929688 215.0625 L 219.929688 176.734375 L 215.4375 180.089844 L 215.4375 219.582031 L 237.953125 219.582031 L 237.953125 152.496094 Z M 187.308594 188.722656"/></clipPath></defs><path fill="#FFF" d="M-37.5 -37.5H412.5V412.5H-37.5z"/><path fill="#FFF" d="M-37.5 -37.5H412.5V412.5H-37.5z"/><path d="M-37.5 -37.5H412.5V412.5H-37.5z"/><g clip-path="url(#a)"><g clip-path="url(#b)"><path fill="#4267B2" d="M 136.699219 143.171875 L 136.699219 219.582031 L 237.949219 219.582031 L 237.949219 143.171875 Z M 136.699219 143.171875"/></g></g></svg>